<?xml version="1.0" encoding="UTF-8" ?>
<svg version="1.1" width="8" height="80" xmlns="http://www.w3.org/2000/svg" shape-rendering="crispEdges">
<rect x="0" y="0" width="1" height="1" fill="#FFB2E3" />
<rect x="1" y="0" width="1" height="1" fill="#FFB2E3" />
<rect x="2" y="0" width="1" height="1" fill="#FFB2E3" />
<rect x="0" y="1" width="1" height="1" fill="#FFB2E3" />
<rect x="1" y="1" width="1" height="1" fill="#FFB2E3" />
<rect x="2" y="1" width="1" height="1" fill="#FFB2E3" />
<rect x="0" y="2" width="1" height="1" fill="#FFB2E3" />
<rect x="1" y="2" width="1" height="1" fill="#FFB2E3" />
<rect x="2" y="2" width="1" height="1" fill="#FFB2E3" />
<rect x="3" y="2" width="1" height="1" fill="#FFB2E3" />
<rect x="0" y="3" width="1" height="1" fill="#FFB2E3" />
<rect x="1" y="3" width="1" height="1" fill="#FFB2E3" />
<rect x="2" y="3" width="1" height="1" fill="#FFB2E3" />
<rect x="3" y="3" width="1" height="1" fill="#FFB2E3" />
<rect x="0" y="4" width="1" height="1" fill="#FFB2E3" />
<rect x="1" y="4" width="1" height="1" fill="#FFB2E3" />
<rect x="2" y="4" width="1" height="1" fill="#FFB2E3" />
<rect x="3" y="4" width="1" height="1" fill="#FFB2E3" />
<rect x="4" y="4" width="1" height="1" fill="#FFB2E3" />
<rect x="5" y="4" width="1" height="1" fill="#FFB2E3" />
<rect x="0" y="5" width="1" height="1" fill="#FFB2E3" />
<rect x="1" y="5" width="1" height="1" fill="#FFB2E3" />
<rect x="2" y="5" width="1" height="1" fill="#FFB2E3" />
<rect x="3" y="5" width="1" height="1" fill="#FFB2E3" />
<rect x="4" y="5" width="1" height="1" fill="#FFB2E3" />
<rect x="5" y="5" width="1" height="1" fill="#FFB2E3" />
<rect x="0" y="6" width="1" height="1" fill="#FFB2E3" />
<rect x="1" y="6" width="1" height="1" fill="#FFB2E3" />
<rect x="2" y="6" width="1" height="1" fill="#FFB2E3" />
<rect x="3" y="6" width="1" height="1" fill="#FFB2E3" />
<rect x="4" y="6" width="1" height="1" fill="#FFB2E3" />
<rect x="5" y="6" width="1" height="1" fill="#FFB2E3" />
<rect x="6" y="6" width="1" height="1" fill="#FFB2E3" />
<rect x="0" y="7" width="1" height="1" fill="#FFB2E3" />
<rect x="1" y="7" width="1" height="1" fill="#FFB2E3" />
<rect x="2" y="7" width="1" height="1" fill="#FFB2E3" />
<rect x="3" y="7" width="1" height="1" fill="#FFB2E3" />
<rect x="4" y="7" width="1" height="1" fill="#FFB2E3" />
<rect x="5" y="7" width="1" height="1" fill="#FFB2E3" />
<rect x="6" y="7" width="1" height="1" fill="#FFB2E3" />
<rect x="0" y="8" width="1" height="1" fill="#FFB2E3" />
<rect x="1" y="8" width="1" height="1" fill="#FFB2E3" />
<rect x="2" y="8" width="1" height="1" fill="#FFB2E3" />
<rect x="3" y="8" width="1" height="1" fill="#FFB2E3" />
<rect x="4" y="8" width="1" height="1" fill="#FFB2E3" />
<rect x="5" y="8" width="1" height="1" fill="#FFB2E3" />
<rect x="6" y="8" width="1" height="1" fill="#FFB2E3" />
<rect x="0" y="9" width="1" height="1" fill="#FFB2E3" />
<rect x="1" y="9" width="1" height="1" fill="#FFB2E3" />
<rect x="2" y="9" width="1" height="1" fill="#FFB2E3" />
<rect x="3" y="9" width="1" height="1" fill="#FFB2E3" />
<rect x="4" y="9" width="1" height="1" fill="#FFB2E3" />
<rect x="5" y="9" width="1" height="1" fill="#FFB2E3" />
<rect x="6" y="9" width="1" height="1" fill="#FFB2E3" />
<rect x="0" y="10" width="1" height="1" fill="#FFB2E3" />
<rect x="1" y="10" width="1" height="1" fill="#FFB2E3" />
<rect x="2" y="10" width="1" height="1" fill="#FFB2E3" />
<rect x="3" y="10" width="1" height="1" fill="#FFB2E3" />
<rect x="4" y="10" width="1" height="1" fill="#FFB2E3" />
<rect x="5" y="10" width="1" height="1" fill="#FFB2E3" />
<rect x="0" y="11" width="1" height="1" fill="#FFB2E3" />
<rect x="1" y="11" width="1" height="1" fill="#FFB2E3" />
<rect x="2" y="11" width="1" height="1" fill="#FFB2E3" />
<rect x="3" y="11" width="1" height="1" fill="#FFB2E3" />
<rect x="4" y="11" width="1" height="1" fill="#FFB2E3" />
<rect x="5" y="11" width="1" height="1" fill="#FFB2E3" />
<rect x="0" y="12" width="1" height="1" fill="#FFB2E3" />
<rect x="1" y="12" width="1" height="1" fill="#FFB2E3" />
<rect x="2" y="12" width="1" height="1" fill="#FFB2E3" />
<rect x="3" y="12" width="1" height="1" fill="#FFB2E3" />
<rect x="0" y="13" width="1" height="1" fill="#FFB2E3" />
<rect x="1" y="13" width="1" height="1" fill="#FFB2E3" />
<rect x="2" y="13" width="1" height="1" fill="#FFB2E3" />
<rect x="3" y="13" width="1" height="1" fill="#FFB2E3" />
<rect x="0" y="14" width="1" height="1" fill="#FFB2E3" />
<rect x="1" y="14" width="1" height="1" fill="#FFB2E3" />
<rect x="2" y="14" width="1" height="1" fill="#FFB2E3" />
<rect x="0" y="15" width="1" height="1" fill="#FFB2E3" />
<rect x="1" y="15" width="1" height="1" fill="#FFB2E3" />
<rect x="2" y="15" width="1" height="1" fill="#FFB2E3" />
<rect x="0" y="16" width="1" height="1" fill="#FFB2E3" />
<rect x="1" y="16" width="1" height="1" fill="#FFB2E3" />
<rect x="2" y="16" width="1" height="1" fill="#FFB2E3" />
<rect x="0" y="17" width="1" height="1" fill="#FFB2E3" />
<rect x="1" y="17" width="1" height="1" fill="#FFB2E3" />
<rect x="2" y="17" width="1" height="1" fill="#FFB2E3" />
<rect x="0" y="18" width="1" height="1" fill="#FFB2E3" />
<rect x="1" y="18" width="1" height="1" fill="#FFB2E3" />
<rect x="2" y="18" width="1" height="1" fill="#FFB2E3" />
<rect x="3" y="18" width="1" height="1" fill="#FFB2E3" />
<rect x="0" y="19" width="1" height="1" fill="#FFB2E3" />
<rect x="1" y="19" width="1" height="1" fill="#FFB2E3" />
<rect x="2" y="19" width="1" height="1" fill="#FFB2E3" />
<rect x="3" y="19" width="1" height="1" fill="#FFB2E3" />
<rect x="0" y="20" width="1" height="1" fill="#FFB2E3" />
<rect x="1" y="20" width="1" height="1" fill="#FFB2E3" />
<rect x="2" y="20" width="1" height="1" fill="#FFB2E3" />
<rect x="3" y="20" width="1" height="1" fill="#FFB2E3" />
<rect x="4" y="20" width="1" height="1" fill="#FFB2E3" />
<rect x="5" y="20" width="1" height="1" fill="#FFB2E3" />
<rect x="0" y="21" width="1" height="1" fill="#FFB2E3" />
<rect x="1" y="21" width="1" height="1" fill="#FFB2E3" />
<rect x="2" y="21" width="1" height="1" fill="#FFB2E3" />
<rect x="3" y="21" width="1" height="1" fill="#FFB2E3" />
<rect x="4" y="21" width="1" height="1" fill="#FFB2E3" />
<rect x="5" y="21" width="1" height="1" fill="#FFB2E3" />
<rect x="0" y="22" width="1" height="1" fill="#FFB2E3" />
<rect x="1" y="22" width="1" height="1" fill="#FFB2E3" />
<rect x="2" y="22" width="1" height="1" fill="#FFB2E3" />
<rect x="3" y="22" width="1" height="1" fill="#FFB2E3" />
<rect x="4" y="22" width="1" height="1" fill="#FFB2E3" />
<rect x="5" y="22" width="1" height="1" fill="#FFB2E3" />
<rect x="6" y="22" width="1" height="1" fill="#FFB2E3" />
<rect x="0" y="23" width="1" height="1" fill="#FFB2E3" />
<rect x="1" y="23" width="1" height="1" fill="#FFB2E3" />
<rect x="2" y="23" width="1" height="1" fill="#FFB2E3" />
<rect x="3" y="23" width="1" height="1" fill="#FFB2E3" />
<rect x="4" y="23" width="1" height="1" fill="#FFB2E3" />
<rect x="5" y="23" width="1" height="1" fill="#FFB2E3" />
<rect x="6" y="23" width="1" height="1" fill="#FFB2E3" />
<rect x="0" y="24" width="1" height="1" fill="#FFB2E3" />
<rect x="1" y="24" width="1" height="1" fill="#FFB2E3" />
<rect x="2" y="24" width="1" height="1" fill="#FFB2E3" />
<rect x="3" y="24" width="1" height="1" fill="#FFB2E3" />
<rect x="4" y="24" width="1" height="1" fill="#FFB2E3" />
<rect x="5" y="24" width="1" height="1" fill="#FFB2E3" />
<rect x="6" y="24" width="1" height="1" fill="#FFB2E3" />
<rect x="0" y="25" width="1" height="1" fill="#FFB2E3" />
<rect x="1" y="25" width="1" height="1" fill="#FFB2E3" />
<rect x="2" y="25" width="1" height="1" fill="#FFB2E3" />
<rect x="3" y="25" width="1" height="1" fill="#FFB2E3" />
<rect x="4" y="25" width="1" height="1" fill="#FFB2E3" />
<rect x="5" y="25" width="1" height="1" fill="#FFB2E3" />
<rect x="6" y="25" width="1" height="1" fill="#FFB2E3" />
<rect x="0" y="26" width="1" height="1" fill="#FFB2E3" />
<rect x="1" y="26" width="1" height="1" fill="#FFB2E3" />
<rect x="2" y="26" width="1" height="1" fill="#FFB2E3" />
<rect x="3" y="26" width="1" height="1" fill="#FFB2E3" />
<rect x="4" y="26" width="1" height="1" fill="#FFB2E3" />
<rect x="5" y="26" width="1" height="1" fill="#FFB2E3" />
<rect x="0" y="27" width="1" height="1" fill="#FFB2E3" />
<rect x="1" y="27" width="1" height="1" fill="#FFB2E3" />
<rect x="2" y="27" width="1" height="1" fill="#FFB2E3" />
<rect x="3" y="27" width="1" height="1" fill="#FFB2E3" />
<rect x="4" y="27" width="1" height="1" fill="#FFB2E3" />
<rect x="5" y="27" width="1" height="1" fill="#FFB2E3" />
<rect x="0" y="28" width="1" height="1" fill="#FFB2E3" />
<rect x="1" y="28" width="1" height="1" fill="#FFB2E3" />
<rect x="2" y="28" width="1" height="1" fill="#FFB2E3" />
<rect x="3" y="28" width="1" height="1" fill="#FFB2E3" />
<rect x="0" y="29" width="1" height="1" fill="#FFB2E3" />
<rect x="1" y="29" width="1" height="1" fill="#FFB2E3" />
<rect x="2" y="29" width="1" height="1" fill="#FFB2E3" />
<rect x="3" y="29" width="1" height="1" fill="#FFB2E3" />
<rect x="0" y="30" width="1" height="1" fill="#FFB2E3" />
<rect x="1" y="30" width="1" height="1" fill="#FFB2E3" />
<rect x="2" y="30" width="1" height="1" fill="#FFB2E3" />
<rect x="0" y="31" width="1" height="1" fill="#FFB2E3" />
<rect x="1" y="31" width="1" height="1" fill="#FFB2E3" />
<rect x="2" y="31" width="1" height="1" fill="#FFB2E3" />
<rect x="0" y="32" width="1" height="1" fill="#FFB2E3" />
<rect x="1" y="32" width="1" height="1" fill="#FFB2E3" />
<rect x="2" y="32" width="1" height="1" fill="#FFB2E3" />
<rect x="0" y="33" width="1" height="1" fill="#FFB2E3" />
<rect x="1" y="33" width="1" height="1" fill="#FFB2E3" />
<rect x="2" y="33" width="1" height="1" fill="#FFB2E3" />
<rect x="0" y="34" width="1" height="1" fill="#FFB2E3" />
<rect x="1" y="34" width="1" height="1" fill="#FFB2E3" />
<rect x="2" y="34" width="1" height="1" fill="#FFB2E3" />
<rect x="3" y="34" width="1" height="1" fill="#FFB2E3" />
<rect x="0" y="35" width="1" height="1" fill="#FFB2E3" />
<rect x="1" y="35" width="1" height="1" fill="#FFB2E3" />
<rect x="2" y="35" width="1" height="1" fill="#FFB2E3" />
<rect x="3" y="35" width="1" height="1" fill="#FFB2E3" />
<rect x="0" y="36" width="1" height="1" fill="#FFB2E3" />
<rect x="1" y="36" width="1" height="1" fill="#FFB2E3" />
<rect x="2" y="36" width="1" height="1" fill="#FFB2E3" />
<rect x="3" y="36" width="1" height="1" fill="#FFB2E3" />
<rect x="4" y="36" width="1" height="1" fill="#FFB2E3" />
<rect x="5" y="36" width="1" height="1" fill="#FFB2E3" />
<rect x="0" y="37" width="1" height="1" fill="#FFB2E3" />
<rect x="1" y="37" width="1" height="1" fill="#FFB2E3" />
<rect x="2" y="37" width="1" height="1" fill="#FFB2E3" />
<rect x="3" y="37" width="1" height="1" fill="#FFB2E3" />
<rect x="4" y="37" width="1" height="1" fill="#FFB2E3" />
<rect x="5" y="37" width="1" height="1" fill="#FFB2E3" />
<rect x="0" y="38" width="1" height="1" fill="#FFB2E3" />
<rect x="1" y="38" width="1" height="1" fill="#FFB2E3" />
<rect x="2" y="38" width="1" height="1" fill="#FFB2E3" />
<rect x="3" y="38" width="1" height="1" fill="#FFB2E3" />
<rect x="4" y="38" width="1" height="1" fill="#FFB2E3" />
<rect x="5" y="38" width="1" height="1" fill="#FFB2E3" />
<rect x="6" y="38" width="1" height="1" fill="#FFB2E3" />
<rect x="0" y="39" width="1" height="1" fill="#FFB2E3" />
<rect x="1" y="39" width="1" height="1" fill="#FFB2E3" />
<rect x="2" y="39" width="1" height="1" fill="#FFB2E3" />
<rect x="3" y="39" width="1" height="1" fill="#FFB2E3" />
<rect x="4" y="39" width="1" height="1" fill="#FFB2E3" />
<rect x="5" y="39" width="1" height="1" fill="#FFB2E3" />
<rect x="6" y="39" width="1" height="1" fill="#FFB2E3" />
<rect x="0" y="40" width="1" height="1" fill="#FFB2E3" />
<rect x="1" y="40" width="1" height="1" fill="#FFB2E3" />
<rect x="2" y="40" width="1" height="1" fill="#FFB2E3" />
<rect x="3" y="40" width="1" height="1" fill="#FFB2E3" />
<rect x="4" y="40" width="1" height="1" fill="#FFB2E3" />
<rect x="5" y="40" width="1" height="1" fill="#FFB2E3" />
<rect x="6" y="40" width="1" height="1" fill="#FFB2E3" />
<rect x="0" y="41" width="1" height="1" fill="#FFB2E3" />
<rect x="1" y="41" width="1" height="1" fill="#FFB2E3" />
<rect x="2" y="41" width="1" height="1" fill="#FFB2E3" />
<rect x="3" y="41" width="1" height="1" fill="#FFB2E3" />
<rect x="4" y="41" width="1" height="1" fill="#FFB2E3" />
<rect x="5" y="41" width="1" height="1" fill="#FFB2E3" />
<rect x="6" y="41" width="1" height="1" fill="#FFB2E3" />
<rect x="0" y="42" width="1" height="1" fill="#FFB2E3" />
<rect x="1" y="42" width="1" height="1" fill="#FFB2E3" />
<rect x="2" y="42" width="1" height="1" fill="#FFB2E3" />
<rect x="3" y="42" width="1" height="1" fill="#FFB2E3" />
<rect x="4" y="42" width="1" height="1" fill="#FFB2E3" />
<rect x="5" y="42" width="1" height="1" fill="#FFB2E3" />
<rect x="0" y="43" width="1" height="1" fill="#FFB2E3" />
<rect x="1" y="43" width="1" height="1" fill="#FFB2E3" />
<rect x="2" y="43" width="1" height="1" fill="#FFB2E3" />
<rect x="3" y="43" width="1" height="1" fill="#FFB2E3" />
<rect x="4" y="43" width="1" height="1" fill="#FFB2E3" />
<rect x="5" y="43" width="1" height="1" fill="#FFB2E3" />
<rect x="0" y="44" width="1" height="1" fill="#FFB2E3" />
<rect x="1" y="44" width="1" height="1" fill="#FFB2E3" />
<rect x="2" y="44" width="1" height="1" fill="#FFB2E3" />
<rect x="3" y="44" width="1" height="1" fill="#FFB2E3" />
<rect x="0" y="45" width="1" height="1" fill="#FFB2E3" />
<rect x="1" y="45" width="1" height="1" fill="#FFB2E3" />
<rect x="2" y="45" width="1" height="1" fill="#FFB2E3" />
<rect x="3" y="45" width="1" height="1" fill="#FFB2E3" />
<rect x="0" y="46" width="1" height="1" fill="#FFB2E3" />
<rect x="1" y="46" width="1" height="1" fill="#FFB2E3" />
<rect x="2" y="46" width="1" height="1" fill="#FFB2E3" />
<rect x="0" y="47" width="1" height="1" fill="#FFB2E3" />
<rect x="1" y="47" width="1" height="1" fill="#FFB2E3" />
<rect x="2" y="47" width="1" height="1" fill="#FFB2E3" />
<rect x="0" y="48" width="1" height="1" fill="#FFB2E3" />
<rect x="1" y="48" width="1" height="1" fill="#FFB2E3" />
<rect x="2" y="48" width="1" height="1" fill="#FFB2E3" />
<rect x="0" y="49" width="1" height="1" fill="#FFB2E3" />
<rect x="1" y="49" width="1" height="1" fill="#FFB2E3" />
<rect x="2" y="49" width="1" height="1" fill="#FFB2E3" />
<rect x="0" y="50" width="1" height="1" fill="#FFB2E3" />
<rect x="1" y="50" width="1" height="1" fill="#FFB2E3" />
<rect x="2" y="50" width="1" height="1" fill="#FFB2E3" />
<rect x="3" y="50" width="1" height="1" fill="#FFB2E3" />
<rect x="0" y="51" width="1" height="1" fill="#FFB2E3" />
<rect x="1" y="51" width="1" height="1" fill="#FFB2E3" />
<rect x="2" y="51" width="1" height="1" fill="#FFB2E3" />
<rect x="3" y="51" width="1" height="1" fill="#FFB2E3" />
<rect x="0" y="52" width="1" height="1" fill="#FFB2E3" />
<rect x="1" y="52" width="1" height="1" fill="#FFB2E3" />
<rect x="2" y="52" width="1" height="1" fill="#FFB2E3" />
<rect x="3" y="52" width="1" height="1" fill="#FFB2E3" />
<rect x="4" y="52" width="1" height="1" fill="#FFB2E3" />
<rect x="5" y="52" width="1" height="1" fill="#FFB2E3" />
<rect x="0" y="53" width="1" height="1" fill="#FFB2E3" />
<rect x="1" y="53" width="1" height="1" fill="#FFB2E3" />
<rect x="2" y="53" width="1" height="1" fill="#FFB2E3" />
<rect x="3" y="53" width="1" height="1" fill="#FFB2E3" />
<rect x="4" y="53" width="1" height="1" fill="#FFB2E3" />
<rect x="5" y="53" width="1" height="1" fill="#FFB2E3" />
<rect x="0" y="54" width="1" height="1" fill="#FFB2E3" />
<rect x="1" y="54" width="1" height="1" fill="#FFB2E3" />
<rect x="2" y="54" width="1" height="1" fill="#FFB2E3" />
<rect x="3" y="54" width="1" height="1" fill="#FFB2E3" />
<rect x="4" y="54" width="1" height="1" fill="#FFB2E3" />
<rect x="5" y="54" width="1" height="1" fill="#FFB2E3" />
<rect x="6" y="54" width="1" height="1" fill="#FFB2E3" />
<rect x="0" y="55" width="1" height="1" fill="#FFB2E3" />
<rect x="1" y="55" width="1" height="1" fill="#FFB2E3" />
<rect x="2" y="55" width="1" height="1" fill="#FFB2E3" />
<rect x="3" y="55" width="1" height="1" fill="#FFB2E3" />
<rect x="4" y="55" width="1" height="1" fill="#FFB2E3" />
<rect x="5" y="55" width="1" height="1" fill="#FFB2E3" />
<rect x="6" y="55" width="1" height="1" fill="#FFB2E3" />
<rect x="0" y="56" width="1" height="1" fill="#FFB2E3" />
<rect x="1" y="56" width="1" height="1" fill="#FFB2E3" />
<rect x="2" y="56" width="1" height="1" fill="#FFB2E3" />
<rect x="3" y="56" width="1" height="1" fill="#FFB2E3" />
<rect x="4" y="56" width="1" height="1" fill="#FFB2E3" />
<rect x="5" y="56" width="1" height="1" fill="#FFB2E3" />
<rect x="6" y="56" width="1" height="1" fill="#FFB2E3" />
<rect x="0" y="57" width="1" height="1" fill="#FFB2E3" />
<rect x="1" y="57" width="1" height="1" fill="#FFB2E3" />
<rect x="2" y="57" width="1" height="1" fill="#FFB2E3" />
<rect x="3" y="57" width="1" height="1" fill="#FFB2E3" />
<rect x="4" y="57" width="1" height="1" fill="#FFB2E3" />
<rect x="5" y="57" width="1" height="1" fill="#FFB2E3" />
<rect x="6" y="57" width="1" height="1" fill="#FFB2E3" />
<rect x="0" y="58" width="1" height="1" fill="#FFB2E3" />
<rect x="1" y="58" width="1" height="1" fill="#FFB2E3" />
<rect x="2" y="58" width="1" height="1" fill="#FFB2E3" />
<rect x="3" y="58" width="1" height="1" fill="#FFB2E3" />
<rect x="4" y="58" width="1" height="1" fill="#FFB2E3" />
<rect x="5" y="58" width="1" height="1" fill="#FFB2E3" />
<rect x="0" y="59" width="1" height="1" fill="#FFB2E3" />
<rect x="1" y="59" width="1" height="1" fill="#FFB2E3" />
<rect x="2" y="59" width="1" height="1" fill="#FFB2E3" />
<rect x="3" y="59" width="1" height="1" fill="#FFB2E3" />
<rect x="4" y="59" width="1" height="1" fill="#FFB2E3" />
<rect x="5" y="59" width="1" height="1" fill="#FFB2E3" />
<rect x="0" y="60" width="1" height="1" fill="#FFB2E3" />
<rect x="1" y="60" width="1" height="1" fill="#FFB2E3" />
<rect x="2" y="60" width="1" height="1" fill="#FFB2E3" />
<rect x="3" y="60" width="1" height="1" fill="#FFB2E3" />
<rect x="0" y="61" width="1" height="1" fill="#FFB2E3" />
<rect x="1" y="61" width="1" height="1" fill="#FFB2E3" />
<rect x="2" y="61" width="1" height="1" fill="#FFB2E3" />
<rect x="3" y="61" width="1" height="1" fill="#FFB2E3" />
<rect x="0" y="62" width="1" height="1" fill="#FFB2E3" />
<rect x="1" y="62" width="1" height="1" fill="#FFB2E3" />
<rect x="2" y="62" width="1" height="1" fill="#FFB2E3" />
<rect x="0" y="63" width="1" height="1" fill="#FFB2E3" />
<rect x="1" y="63" width="1" height="1" fill="#FFB2E3" />
<rect x="2" y="63" width="1" height="1" fill="#FFB2E3" />
<rect x="0" y="64" width="1" height="1" fill="#FFB2E3" />
<rect x="1" y="64" width="1" height="1" fill="#FFB2E3" />
<rect x="2" y="64" width="1" height="1" fill="#FFB2E3" />
<rect x="0" y="65" width="1" height="1" fill="#FFB2E3" />
<rect x="1" y="65" width="1" height="1" fill="#FFB2E3" />
<rect x="2" y="65" width="1" height="1" fill="#FFB2E3" />
<rect x="0" y="66" width="1" height="1" fill="#FFB2E3" />
<rect x="1" y="66" width="1" height="1" fill="#FFB2E3" />
<rect x="2" y="66" width="1" height="1" fill="#FFB2E3" />
<rect x="3" y="66" width="1" height="1" fill="#FFB2E3" />
<rect x="0" y="67" width="1" height="1" fill="#FFB2E3" />
<rect x="1" y="67" width="1" height="1" fill="#FFB2E3" />
<rect x="2" y="67" width="1" height="1" fill="#FFB2E3" />
<rect x="3" y="67" width="1" height="1" fill="#FFB2E3" />
<rect x="0" y="68" width="1" height="1" fill="#FFB2E3" />
<rect x="1" y="68" width="1" height="1" fill="#FFB2E3" />
<rect x="2" y="68" width="1" height="1" fill="#FFB2E3" />
<rect x="3" y="68" width="1" height="1" fill="#FFB2E3" />
<rect x="4" y="68" width="1" height="1" fill="#FFB2E3" />
<rect x="5" y="68" width="1" height="1" fill="#FFB2E3" />
<rect x="0" y="69" width="1" height="1" fill="#FFB2E3" />
<rect x="1" y="69" width="1" height="1" fill="#FFB2E3" />
<rect x="2" y="69" width="1" height="1" fill="#FFB2E3" />
<rect x="3" y="69" width="1" height="1" fill="#FFB2E3" />
<rect x="4" y="69" width="1" height="1" fill="#FFB2E3" />
<rect x="5" y="69" width="1" height="1" fill="#FFB2E3" />
<rect x="0" y="70" width="1" height="1" fill="#FFB2E3" />
<rect x="1" y="70" width="1" height="1" fill="#FFB2E3" />
<rect x="2" y="70" width="1" height="1" fill="#FFB2E3" />
<rect x="3" y="70" width="1" height="1" fill="#FFB2E3" />
<rect x="4" y="70" width="1" height="1" fill="#FFB2E3" />
<rect x="5" y="70" width="1" height="1" fill="#FFB2E3" />
<rect x="6" y="70" width="1" height="1" fill="#FFB2E3" />
<rect x="0" y="71" width="1" height="1" fill="#FFB2E3" />
<rect x="1" y="71" width="1" height="1" fill="#FFB2E3" />
<rect x="2" y="71" width="1" height="1" fill="#FFB2E3" />
<rect x="3" y="71" width="1" height="1" fill="#FFB2E3" />
<rect x="4" y="71" width="1" height="1" fill="#FFB2E3" />
<rect x="5" y="71" width="1" height="1" fill="#FFB2E3" />
<rect x="6" y="71" width="1" height="1" fill="#FFB2E3" />
<rect x="0" y="72" width="1" height="1" fill="#FFB2E3" />
<rect x="1" y="72" width="1" height="1" fill="#FFB2E3" />
<rect x="2" y="72" width="1" height="1" fill="#FFB2E3" />
<rect x="3" y="72" width="1" height="1" fill="#FFB2E3" />
<rect x="4" y="72" width="1" height="1" fill="#FFB2E3" />
<rect x="5" y="72" width="1" height="1" fill="#FFB2E3" />
<rect x="6" y="72" width="1" height="1" fill="#FFB2E3" />
<rect x="0" y="73" width="1" height="1" fill="#FFB2E3" />
<rect x="1" y="73" width="1" height="1" fill="#FFB2E3" />
<rect x="2" y="73" width="1" height="1" fill="#FFB2E3" />
<rect x="3" y="73" width="1" height="1" fill="#FFB2E3" />
<rect x="4" y="73" width="1" height="1" fill="#FFB2E3" />
<rect x="5" y="73" width="1" height="1" fill="#FFB2E3" />
<rect x="6" y="73" width="1" height="1" fill="#FFB2E3" />
<rect x="0" y="74" width="1" height="1" fill="#FFB2E3" />
<rect x="1" y="74" width="1" height="1" fill="#FFB2E3" />
<rect x="2" y="74" width="1" height="1" fill="#FFB2E3" />
<rect x="3" y="74" width="1" height="1" fill="#FFB2E3" />
<rect x="4" y="74" width="1" height="1" fill="#FFB2E3" />
<rect x="5" y="74" width="1" height="1" fill="#FFB2E3" />
<rect x="0" y="75" width="1" height="1" fill="#FFB2E3" />
<rect x="1" y="75" width="1" height="1" fill="#FFB2E3" />
<rect x="2" y="75" width="1" height="1" fill="#FFB2E3" />
<rect x="3" y="75" width="1" height="1" fill="#FFB2E3" />
<rect x="4" y="75" width="1" height="1" fill="#FFB2E3" />
<rect x="5" y="75" width="1" height="1" fill="#FFB2E3" />
<rect x="0" y="76" width="1" height="1" fill="#FFB2E3" />
<rect x="1" y="76" width="1" height="1" fill="#FFB2E3" />
<rect x="2" y="76" width="1" height="1" fill="#FFB2E3" />
<rect x="3" y="76" width="1" height="1" fill="#FFB2E3" />
<rect x="0" y="77" width="1" height="1" fill="#FFB2E3" />
<rect x="1" y="77" width="1" height="1" fill="#FFB2E3" />
<rect x="2" y="77" width="1" height="1" fill="#FFB2E3" />
<rect x="3" y="77" width="1" height="1" fill="#FFB2E3" />
<rect x="0" y="78" width="1" height="1" fill="#FFB2E3" />
<rect x="1" y="78" width="1" height="1" fill="#FFB2E3" />
<rect x="2" y="78" width="1" height="1" fill="#FFB2E3" />
<rect x="0" y="79" width="1" height="1" fill="#FFB2E3" />
<rect x="1" y="79" width="1" height="1" fill="#FFB2E3" />
<rect x="2" y="79" width="1" height="1" fill="#FFB2E3" />
</svg>