<svg width="367" height="57" viewBox="0 0 367 57" fill="none" xmlns="http://www.w3.org/2000/svg">
<path d="M60.7821 16.4766H30.4975L28.09 23.9833H56.7906L52.2922 37.9152H23.5283L17.9529 55.2188H0.529785L17.6995 1.78125H65.5338L60.7821 16.4766Z" fill="white"/>
<path d="M52.7249 55.2188L69.8945 1.78125H87.4443L70.2747 55.2188H52.7249Z" fill="white"/>
<path d="M116.696 15.2042C106.306 15.2042 99.3366 23.7924 99.3366 32.2533C99.3366 38.615 103.898 41.7958 109.664 41.7958C112.578 41.7958 119.674 41.1596 123.095 34.5435H110.297L113.212 25.6373H143.243L133.739 55.2188H124.743L126.517 48.7299C121.955 53.692 114.606 57 105.736 57C90.7834 57 81.8501 49.1116 81.8501 35.1161C81.8501 16.4766 97.7527 0 120.054 0C135.387 0 145.144 9.41518 143.813 20.7388H126.2C124.869 17.3672 121.321 15.2042 116.696 15.2042Z" fill="white"/>
<path d="M137.938 55.2188L155.044 1.78125H176.332L175.128 31.8717H176.649L194.705 1.84487H217.831L200.788 55.2188H183.935L191.537 31.6172H189.89L176.205 55.2188H163.217L163.914 31.6172H162.267L154.664 55.2188H137.938Z" fill="white"/>
<path d="M249.196 55.2188L249.069 48.1574H226.641L222.016 55.2188H203.326L239.503 1.78125H264.212L266.619 55.2188H249.196ZM235.194 35.1161H248.943L248.689 18.3214H246.155L235.194 35.1161Z" fill="white"/>
<path d="M329.17 1.78125L324.418 16.4766H305.665L293.057 55.2188H275.507L288.115 16.4766H268.918L273.606 1.78125H329.17Z" fill="white"/>
<path d="M349.577 55.2188L349.45 48.1574H327.022L322.397 55.2188H303.707L339.883 1.78125H364.592L367 55.2188H349.577ZM335.575 35.1161H349.323L349.07 18.3214H346.536L335.575 35.1161Z" fill="white"/>
</svg>
