<svg width="392" height="54" viewBox="0 0 392 54" fill="none" xmlns="http://www.w3.org/2000/svg">
<path d="M35.2669 30.862H12.4734L7.61023 53.7489H0L11.3225 0.296509H41.7264L40.1301 7.93789H47.7403L44.4735 23.2207H36.8632L40.1301 7.93789H17.3365L14.0697 23.2207H36.8632L35.2669 30.862Z" fill="white"/>
<path d="M53.2345 53.7489L64.5571 0.296509H72.1673L60.8447 53.7489H53.2345Z" fill="white"/>
<path d="M96.0746 30.862L94.4783 38.4662H86.9052L88.5014 30.862H96.0746ZM105.281 23.2207L106.877 15.5793H114.488L112.891 23.2207H105.281ZM86.9052 38.4662L83.6383 53.7489H76.0281L79.2949 38.4662H86.9052ZM114.488 15.5793L117.754 0.296509H125.365L122.098 15.5793H114.488ZM106.432 53.7489L109.699 38.4662H102.089L103.685 30.862H96.0746L97.6709 23.2207H90.0977L91.694 15.5793H84.0838L87.3506 0.296509H94.9609L91.694 15.5793H99.2671L97.6709 23.2207H105.281L103.685 30.862H111.295L109.699 38.4662H117.309L114.042 53.7489H106.432Z" fill="white"/>
<path d="M129.263 53.7489L140.585 0.296509H178.599L177.003 7.93789H146.599L143.332 23.2207H173.736L172.14 30.862H141.736L138.469 46.1075H168.873L167.277 53.7489H129.263Z" fill="white"/>
<path d="M182.497 53.7489L193.82 0.296509H201.43L191.704 46.1075H222.107L220.511 53.7489H182.497Z" fill="white"/>
<path d="M275.862 7.93789H253.068L254.664 0.296509H277.458L275.862 7.93789H283.472L273.746 53.7489H266.135L269.402 38.4662H246.609L243.342 53.7489H235.732L245.458 7.93789H253.068L248.205 30.862H270.999L275.862 7.93789Z" fill="white"/>
<path d="M319.37 53.7489H288.966L300.289 0.296509H330.692L329.096 7.93789H336.706L328.576 46.1075H320.966L329.096 7.93789H306.303L298.173 46.1075H320.966L319.37 53.7489Z" fill="white"/>
<path d="M379.064 23.2207L377.468 30.862H369.857L371.454 23.2207H379.064ZM379.064 23.2207L383.927 0.296509H391.537L386.674 23.2207H379.064ZM369.857 30.862L364.994 53.7489H357.384L362.247 30.862H354.674L356.27 23.2207H348.66L353.523 0.296509H361.133L356.27 23.2207H363.843L362.247 30.862H369.857Z" fill="white"/>
</svg>
