<svg width="347" height="57" viewBox="0 0 347 57" fill="none" xmlns="http://www.w3.org/2000/svg">
<path d="M58.63 12.35H26.52L22.4033 25.08H52.6133L49.32 35.15H19.11L12.65 54.9733H0.0466309L17.2733 1.77334H62.05L58.63 12.35Z" fill="#FF96D9"/>
<path d="M50.1443 54.9733L67.371 1.77334H80.0376L62.811 54.9733H50.1443Z" fill="#FF96D9"/>
<path d="M110.676 10.9567C97.3128 10.9567 87.8128 22.3567 87.8128 33.5033C87.8128 41.42 93.1328 45.79 100.923 45.79C106.749 45.79 115.616 43.3833 119.543 34.4533H102.886L105.356 26.79H134.426L125.306 54.9733H117.706L119.733 48.07C114.856 53.39 107.256 56.7467 98.1994 56.7467C84.0761 56.7467 75.2728 48.83 75.2728 35.4667C75.2728 16.72 91.3594 0 113.083 0C126.446 0 135.883 7.72667 135.503 18.9367H122.899C121.443 13.5533 116.566 10.9567 110.676 10.9567Z" fill="#FF96D9"/>
<path d="M130.724 54.9733L147.887 1.77334H163.467L164.607 38.8233H165.747L190.447 1.77334H207.484L190.384 54.9733H178.224L188.547 22.99H187.154L166.127 54.9733H155.994L154.537 22.99H153.207L142.884 54.9733H130.724Z" fill="#FF96D9"/>
<path d="M239.968 54.9733L239.525 46.0433H213.621L207.478 54.9733H193.861L231.228 1.77334H249.025L252.445 54.9733H239.968ZM220.271 36.48H239.081L237.941 13.7433H235.978L220.271 36.48Z" fill="#FF96D9"/>
<path d="M312.4 1.77334L308.98 12.35H289.346L275.476 54.9733H262.81L276.68 12.35H256.666L260.023 1.77334H312.4Z" fill="#FF96D9"/>
<path d="M334.449 54.9733L334.005 46.0433H308.102L301.959 54.9733H288.342L325.709 1.77334H343.505L346.925 54.9733H334.449ZM314.752 36.48H333.562L332.422 13.7433H330.459L314.752 36.48Z" fill="#FF96D9"/>
</svg>
